# xmcd CD database file
#
# Track frame offsets:
#	183
#	17415
#	30913
#	43733
#	57378
#	69673
#	82655
#	97078
#	114248
#	128790
#	142220
#	156705
#	169978
#
# Disc length: 2486 seconds
#
# Revision: 0
# Processed by: cddbd v1.5.2PL0 Copyright (c) Steve Scherf et al.
# Submitted via: jetAudio 7
#
DISCID=af09b40d
DTITLE=Dr Hook - Special Collection
DYEAR=1990
DGENRE=Rock
TTITLE0=Baby Makes Her Blue Jeans Talk
TTITLE1=Better Love Next Time
TTITLE2=When You're in Love With a Beautiful Woman
TTITLE3=Walk Right In
TTITLE4=Only Sixteen
TTITLE5=The Cover Of Rolling Stone
TTITLE6=Years From Now
TTITLE7=Sylvia's Mother
TTITLE8=A Little Bit More
TTITLE9=Sexy Eyes
TTITLE10=If Not You
TTITLE11=Sharing The Night Together
TTITLE12=More Like The Movies
EXTD=
EXTT0=
EXTT1=
EXTT2=
EXTT3=
EXTT4=
EXTT5=
EXTT6=
EXTT7=
EXTT8=
EXTT9=
EXTT10=
EXTT11=
EXTT12=
PLAYORDER=
